<?xml version="1.0" standalone="no"?>
<!DOCTYPE svg PUBLIC "-//W3C//DTD SVG 20010904//EN"
 "http://www.w3.org/TR/2001/REC-SVG-20010904/DTD/svg10.dtd">
<svg version="1.0" xmlns="http://www.w3.org/2000/svg"
 width="247.000000pt" height="226.000000pt" viewBox="0 0 247.000000 226.000000"
 preserveAspectRatio="xMidYMid meet">

<g transform="translate(0.000000,226.000000) scale(0.100000,-0.100000)"
fill="#000000" stroke="none">
<path d="M0 1130 l0 -1130 1235 0 1235 0 0 1130 0 1130 -1235 0 -1235 0 0
-1130z m2420 0 l0 -1080 -1185 0 -1185 0 0 1080 0 1080 1185 0 1185 0 0 -1080z"/>
<path d="M782 2053 c-12 -2 -34 -22 -47 -44 -25 -38 -27 -39 -83 -39 -82 0
-102 -17 -102 -83 0 -78 38 -125 135 -168 52 -23 53 -28 23 -119 -32 -101 -30
-286 6 -399 18 -58 26 -106 26 -155 0 -68 -1 -72 -29 -88 -40 -22 -64 -61 -65
-106 l-1 -37 106 -3 c85 -2 109 0 119 12 6 9 32 118 56 243 55 289 102 444
146 480 18 16 106 -29 154 -78 l37 -38 -79 -84 c-130 -137 -184 -263 -184
-428 0 -66 4 -90 15 -99 20 -16 401 -5 422 12 18 14 17 139 -2 253 -16 101
-53 216 -89 280 l-24 43 48 47 c28 27 52 63 59 85 7 23 35 63 69 99 31 33 70
75 85 93 l28 33 -4 -27 c-3 -23 0 -27 28 -32 36 -7 50 -21 87 -86 25 -43 25
-47 10 -67 -10 -12 -30 -25 -45 -29 -49 -12 -60 -41 -52 -143 l8 -91 -49 -96
c-58 -117 -68 -186 -36 -251 15 -29 29 -42 50 -46 29 -6 47 -30 36 -48 -3 -5
-36 -9 -75 -9 -55 0 -69 -3 -69 -15 0 -13 14 -15 88 -13 l87 3 3 37 c3 41 -24
78 -57 78 -27 0 -55 73 -46 119 4 20 28 76 53 126 46 87 47 92 48 185 1 124 0
117 34 125 35 8 80 57 80 89 0 33 -58 134 -91 158 -23 18 -29 29 -29 60 0 27
-5 41 -16 45 -23 9 -82 -26 -113 -66 -14 -19 -50 -61 -80 -94 -29 -32 -62 -80
-73 -106 -11 -25 -36 -63 -56 -83 l-35 -37 -56 51 c-88 80 -170 109 -203 71
-25 -29 -54 -92 -82 -182 -32 -100 -82 -347 -92 -446 -9 -97 -15 -105 -73
-105 -27 0 -62 3 -79 6 -38 8 -33 32 16 75 35 31 36 34 40 113 3 65 -1 103
-23 191 -34 137 -31 244 10 373 14 46 25 97 23 114 -3 28 -8 32 -49 42 -81 21
-145 85 -137 139 3 19 11 23 69 27 70 5 92 17 115 62 13 25 20 28 65 28 56 0
105 -18 132 -47 27 -31 58 -131 60 -191 1 -48 -2 -57 -26 -78 -34 -29 -67 -31
-98 -6 -42 35 -20 152 40 206 20 18 20 36 1 36 -20 0 -71 -68 -86 -114 -40
-119 24 -204 132 -175 64 18 87 74 73 180 -5 35 -23 92 -39 126 -25 50 -38 65
-73 82 -43 21 -133 33 -175 24z m545 -719 c27 -47 68 -169 82 -244 15 -84 23
-223 13 -238 -7 -11 -45 -12 -196 -6 -218 8 -206 0 -186 130 14 93 31 139 78
214 38 62 161 192 177 187 5 -2 20 -21 32 -43z"/>
<path d="M1583 620 c-44 -18 -58 -56 -58 -160 0 -111 20 -176 66 -214 65 -55
159 -38 179 33 31 110 20 251 -24 300 -39 44 -111 62 -163 41z m112 -44 c34
-34 48 -97 43 -197 -5 -99 -23 -139 -64 -139 -61 0 -109 109 -102 234 4 89 24
126 69 126 18 0 39 -9 54 -24z"/>
<path d="M105 603 c17 -43 25 -157 19 -259 -6 -97 -5 -112 10 -117 9 -4 23 -4
32 0 13 5 14 19 8 93 l-6 86 46 18 c25 10 55 30 66 46 55 78 -11 150 -139 150
-37 0 -42 -2 -36 -17z m128 -41 c29 -25 21 -66 -20 -103 l-38 -32 -7 34 c-6
30 -11 110 -9 131 1 9 50 -11 74 -30z"/>
<path d="M400 611 c-18 -5 -24 -13 -21 -27 2 -10 6 -93 8 -184 3 -111 8 -167
16 -172 25 -16 147 -5 147 13 0 5 -25 9 -55 9 l-55 0 0 85 0 85 35 0 c19 0 35
5 35 10 0 6 -16 10 -35 10 -35 0 -35 0 -35 44 0 24 -3 58 -6 75 -6 31 -6 31
34 31 43 0 63 14 36 24 -20 8 -72 6 -104 -3z"/>
<path d="M648 613 c-60 -5 -63 -23 -4 -23 41 0 45 -2 49 -27 7 -44 12 -161 10
-250 -1 -74 0 -83 19 -89 37 -11 40 7 29 140 -6 70 -11 149 -11 177 0 45 2 49
24 49 33 0 57 10 50 21 -5 9 -69 9 -166 2z"/>
<path d="M1016 599 c-46 -36 -31 -92 44 -164 82 -80 96 -129 50 -175 -15 -15
-34 -20 -75 -20 -30 0 -55 -4 -55 -10 0 -16 127 -12 160 5 16 9 36 28 44 44
23 43 6 84 -64 156 -72 76 -87 108 -65 141 12 19 24 24 61 24 28 0 43 4 39 10
-3 6 -30 10 -59 10 -39 0 -61 -6 -80 -21z"/>
<path d="M1293 613 c-56 -5 -55 -23 1 -23 l43 0 9 -107 c4 -60 7 -140 6 -179
-3 -75 7 -91 44 -77 13 5 15 15 10 52 -4 25 -9 106 -13 179 l-6 132 26 0 c34
0 58 10 51 21 -5 9 -85 9 -171 2z"/>
<path d="M1882 424 c3 -191 4 -199 23 -199 18 0 20 8 25 105 l5 105 32 -50
c30 -48 55 -99 67 -138 7 -21 30 -31 52 -23 17 7 22 -4 -60 130 -41 68 -44 86
-17 124 34 48 35 68 4 102 -22 24 -39 32 -81 37 l-52 6 2 -199z m83 156 c22
-25 13 -85 -15 -100 -19 -10 -20 -7 -20 55 0 69 6 77 35 45z"/>
<path d="M2186 611 c-18 -7 -19 -18 -17 -192 1 -101 4 -185 6 -187 9 -9 80
-14 119 -8 64 10 58 26 -9 26 l-55 0 0 85 0 85 35 0 c19 0 35 5 35 10 0 11
-11 13 -51 10 -26 -1 -26 -1 -27 74 l-1 76 39 0 c41 0 61 14 34 24 -21 8 -84
6 -108 -3z"/>
</g>
</svg>
